# xmcd
#
# Track frame offsets: 
#        150
#        31271
#        46852
#        65519
#        102391
#        123122
#        150192
#        172451
#        196884
#        212729
#        240986
#        257906
#
# Disc length: 3609 seconds
#
# Revision: 0
# Processed by: cddbd v1.5.2PL0 Copyright (c) Steve Scherf et al.
# Submitted via: ExactAudioCopy v0.95a4
#
DISCID=9d0e170c
DTITLE=David Bromberg - St. John's University - Collegeville MN 4-16-1
DTITLE=975
DYEAR=1975
DGENRE=Folk
TTITLE0=Weekday Woman Blues
TTITLE1=Dark Hollow
TTITLE2=Babe, You Been on My Mind
TTITLE3=She's Crying
TTITLE4=Turkey in the Straw
TTITLE5=New Lee Highway Blues
TTITLE6=Hog for You Baby
TTITLE7=Please Mr. Custer
TTITLE8=The Holdup>
TTITLE9=Maiden's Prayer
TTITLE10=Instrumental
TTITLE11=Sharon
EXTD=
EXTT0=
EXTT1=
EXTT2=
EXTT3=
EXTT4=
EXTT5=
EXTT6=
EXTT7=
EXTT8=
EXTT9=
EXTT10=
EXTT11=
PLAYORDER=
